<?xml version="1.0" encoding="UTF-8"?>
<svg version="1.1" xmlns="http://www.w3.org/2000/svg" width="500" height="500">
<path d="M0 0 C1.63572721 -0.00322096 3.27145415 -0.00658564 4.90718079 -0.01008606 C8.30490794 -0.01602277 11.70260983 -0.01793107 15.1003418 -0.01733398 C19.4594173 -0.01723136 23.81833356 -0.03100962 28.17737103 -0.04810619 C31.54100804 -0.05918899 34.90460564 -0.06125453 38.26825905 -0.06072426 C39.87706882 -0.06190514 41.48587958 -0.06633295 43.09467125 -0.07405663 C45.32975217 -0.08380368 47.56447443 -0.0810024 49.79956055 -0.07495117 C51.07051071 -0.07637619 52.34146088 -0.07780121 53.65092468 -0.07926941 C56.61328125 0.16796875 56.61328125 0.16796875 58.61328125 2.16796875 C58.86397958 4.15813637 58.86397958 4.15813637 58.86496353 6.65640259 C58.87017903 7.60663488 58.87539452 8.55686718 58.88076806 9.53589439 C58.87630662 10.58704241 58.87184517 11.63819042 58.86724854 12.72119141 C58.87192851 14.38772735 58.87192851 14.38772735 58.87670302 16.08793068 C58.88472345 19.8360171 58.87834364 23.58394343 58.87207031 27.33203125 C58.87477838 30.00885498 58.87826552 32.68566742 58.88269043 35.36248779 C58.89160199 41.89345731 58.8896546 48.42438096 58.88386515 54.95535231 C58.87935557 60.26135606 58.87873269 65.56734693 58.88091278 70.87335205 C58.88121925 71.62740188 58.88152571 72.38145171 58.88184147 73.15835154 C58.88248089 74.69000101 58.88312932 76.22165049 58.88378665 77.75329995 C58.8894951 92.12884198 58.88292398 106.50435855 58.87218592 120.8798964 C58.86324993 133.22528224 58.86480183 145.57063047 58.87402344 157.91601562 C58.88471698 172.2387396 58.88894573 186.56144122 58.88279891 200.88416862 C58.88216179 202.41030756 58.88153304 203.9364465 58.88091278 205.46258545 C58.88044995 206.58903534 58.88044995 206.58903534 58.87997778 207.73824179 C58.87824808 213.04028268 58.88117183 218.34230944 58.88587189 223.64434814 C58.89147057 230.10230871 58.88998571 236.56022064 58.8793104 243.0181756 C58.87403995 246.31560323 58.87308966 249.61293248 58.8786087 252.91036224 C58.8840324 256.47857254 58.87726875 260.04655079 58.86724854 263.61474609 C58.8739407 265.19146811 58.8739407 265.19146811 58.88076806 266.80004311 C58.87555257 267.7502754 58.87033707 268.7005077 58.86496353 269.67953491 C58.86463883 270.50396276 58.86431412 271.32839062 58.86397958 272.17780113 C58.61328125 274.16796875 58.61328125 274.16796875 56.61328125 276.16796875 C53.75376892 276.42193604 53.75376892 276.42193604 50.04663086 276.42675781 C49.03376762 276.43201477 49.03376762 276.43201477 48.0004425 276.43737793 C45.75540013 276.4462153 43.51067094 276.44032941 41.265625 276.43359375 C39.69495076 276.43494218 38.12427694 276.43688419 36.55360413 276.43939209 C33.24720317 276.44234796 29.94090993 276.4380396 26.63452148 276.42871094 C22.44585529 276.41745621 18.25744939 276.42378249 14.0687933 276.43585587 C10.81431728 276.44318307 7.5598999 276.44073523 4.30542183 276.43560028 C2.76483694 276.43428615 1.22424633 276.4358309 -0.31633186 276.44055939 C-14.73086545 276.47501761 -28.97559149 275.4022841 -43.01171875 271.91796875 C-43.89359863 271.70180908 -44.77547852 271.48564941 -45.68408203 271.26293945 C-63.52465978 266.71607224 -79.90370161 258.5006015 -94.38671875 247.16796875 C-95.34320313 246.43835938 -96.2996875 245.70875 -97.28515625 244.95703125 C-102.50448326 240.90730133 -102.50448326 240.90730133 -104.38671875 239.16796875 C-104.38671875 238.50796875 -104.38671875 237.84796875 -104.38671875 237.16796875 C-104.98484375 236.89984375 -105.58296875 236.63171875 -106.19921875 236.35546875 C-108.38519729 235.16879469 -109.80004469 234.07197762 -111.38671875 232.16796875 C-111.38671875 231.50796875 -111.38671875 230.84796875 -111.38671875 230.16796875 C-112.04671875 230.16796875 -112.70671875 230.16796875 -113.38671875 230.16796875 C-116.38671875 226.70643029 -116.38671875 226.70643029 -116.38671875 224.16796875 C-117.04671875 224.16796875 -117.70671875 224.16796875 -118.38671875 224.16796875 C-120.19893306 221.70286915 -121.87203461 219.24544688 -123.51171875 216.66796875 C-124.00309326 215.89694824 -124.49446777 215.12592773 -125.00073242 214.33154297 C-145.0512207 182.36699644 -152.4513527 143.53785299 -143.94335938 106.35351562 C-141.19990254 95.58183772 -137.4153656 85.08600761 -132.38671875 75.16796875 C-131.93683594 74.26949219 -131.48695313 73.37101562 -131.0234375 72.4453125 C-127.41782089 65.53535722 -123.10478412 59.35872505 -118.38671875 53.16796875 C-117.72800781 52.27980469 -117.06929687 51.39164063 -116.390625 50.4765625 C-112.83616319 45.7545228 -112.83616319 45.7545228 -111.38671875 44.16796875 C-110.72671875 44.16796875 -110.06671875 44.16796875 -109.38671875 44.16796875 C-109.38671875 43.50796875 -109.38671875 42.84796875 -109.38671875 42.16796875 C-107.953125 40.72265625 -107.953125 40.72265625 -105.94921875 39.04296875 C-102.01991708 35.72085934 -98.22945695 32.27685074 -94.46484375 28.76953125 C-92.37024347 27.15527164 -90.97073825 26.57535921 -88.38671875 26.16796875 C-88.38671875 25.50796875 -88.38671875 24.84796875 -88.38671875 24.16796875 C-85.81174996 22.46239153 -83.24961579 20.88923589 -80.57421875 19.35546875 C-79.79030762 18.90333008 -79.00639648 18.45119141 -78.19873047 17.98535156 C-53.38910646 3.83032406 -28.19225247 0.01318853 0 0 Z " fill="#B8B7B5" transform="translate(269.38671875,111.83203125)"/>
<path d="M0 0 C0 83.82 0 167.64 0 254 C-0.66 254 -1.32 254 -2 254 C-1.99723462 252.72887171 -1.99446924 251.45774342 -1.99162006 250.14809608 C-1.92669973 219.99977894 -1.87720516 189.85147977 -1.84680401 159.7031099 C-1.84305172 155.99543252 -1.83916877 152.28775528 -1.83520508 148.58007812 C-1.83402468 147.47284228 -1.83402468 147.47284228 -1.83282044 146.34323804 C-1.819753 134.37825908 -1.79609184 122.41332319 -1.76854161 110.44836982 C-1.74052456 98.1786882 -1.7238316 85.90902921 -1.71773452 73.63931692 C-1.71361036 66.06324456 -1.70056705 58.48729394 -1.6762506 50.91125904 C-1.65857461 45.10994429 -1.65662499 39.30870821 -1.66067696 33.5073719 C-1.65984799 31.12161952 -1.65383284 28.73586276 -1.64238358 26.35013771 C-1.62757047 23.10577986 -1.6310054 19.86195305 -1.63923645 16.61758423 C-1.63049793 15.66234568 -1.6217594 14.70710714 -1.61275607 13.72292197 C-1.61872922 12.85854116 -1.62470236 11.99416036 -1.63085651 11.1035862 C-1.62971735 10.35401827 -1.62857819 9.60445033 -1.62740451 8.83216822 C-1.86047815 6.58397938 -1.86047815 6.58397938 -5 5 C-5 4.34 -5 3.68 -5 3 C-5.66 2.67 -6.32 2.34 -7 2 C-6 0 -6 0 -4.0625 -0.6875 C-2 -1 -2 -1 0 0 Z " fill="#7E7C7A" transform="translate(328,114)"/>
<path d="M0 0 C2.25245881 2.68841859 3.88213958 4.64641875 5 8 C5.66 8 6.32 8 7 8 C7.33773437 8.62648438 7.67546875 9.25296875 8.0234375 9.8984375 C8.46945313 10.71570313 8.91546875 11.53296875 9.375 12.375 C9.81585938 13.18710937 10.25671875 13.99921875 10.7109375 14.8359375 C11.9443893 17.10814302 11.9443893 17.10814302 14 19 C15.32 19 16.64 19 18 19 C18 19.66 18 20.32 18 21 C18.66 21.33 19.32 21.66 20 22 C19.67 22.99 19.34 23.98 19 25 C19.66 25 20.32 25 21 25 C21.33 25.99 21.66 26.98 22 28 C22.99 28.33 23.98 28.66 25 29 C25.6837045 30.32467746 26.34964186 31.65863633 27 33 C27.99 33.66 28.98 34.32 30 35 C30 35.66 30 36.32 30 37 C30.53625 37.268125 31.0725 37.53625 31.625 37.8125 C35.8125 39.90625 35.8125 39.90625 40 42 C40 42.66 40 43.32 40 44 C40.66 44 41.32 44 42 44 C42.495 43.01 42.495 43.01 43 42 C43 43.65 43 45.3 43 47 C45.64 46.67 48.28 46.34 51 46 C50.67 47.65 50.34 49.3 50 51 C50.99 51 51.98 51 53 51 C53 51.66 53 52.32 53 53 C54.27875 53.0825 55.5575 53.165 56.875 53.25 C59.0859375 53.51171875 59.0859375 53.51171875 61 54 C62.5 56.0625 62.5 56.0625 63 58 C63.66 58 64.32 58 65 58 C65 58.99 65 59.98 65 61 C65.66 61 66.32 61 67 61 C67.33 60.01 67.66 59.02 68 58 C68.66 58.33 69.32 58.66 70 59 C70 59.66 70 60.32 70 61 C71.65 61.33 73.3 61.66 75 62 C75 62.99 75 63.98 75 65 C56.21053193 60.09839963 38.2171692 49.15844383 24 36 C24 35.34 24 34.68 24 34 C23.401875 33.731875 22.80375 33.46375 22.1875 33.1875 C20.00152146 32.00082594 18.58667406 30.90400887 17 29 C17 28.34 17 27.68 17 27 C16.34 27 15.68 27 15 27 C12 23.53846154 12 23.53846154 12 21 C11.34 21 10.68 21 10 21 C8.77905273 19.48706055 8.77905273 19.48706055 7.43359375 17.38671875 C6.94826172 16.63326172 6.46292969 15.87980469 5.96289062 15.10351562 C5.20782227 13.90758789 5.20782227 13.90758789 4.4375 12.6875 C3.67663086 11.50897461 3.67663086 11.50897461 2.90039062 10.30664062 C-0.85776612 4.42670165 -0.85776612 4.42670165 -2 1 C-1.34 0.67 -0.68 0.34 0 0 Z M63 55 C65 56 65 56 65 56 Z " fill="#777674" transform="translate(141,315)"/>
<path d="M0 0 C0.02319031 10.19669169 0.0409492 20.39337709 0.05181217 30.5900898 C0.05702636 35.32504331 0.06409742 40.05997876 0.07543945 44.79492188 C0.08632037 49.36606905 0.09228788 53.93719887 0.09487724 58.508358 C0.09672211 60.25062203 0.10032465 61.99288513 0.10573006 63.73514175 C0.11300955 66.17908009 0.11398803 68.62294706 0.11352539 71.06689453 C0.11712067 71.78403122 0.12071594 72.50116791 0.12442017 73.24003601 C0.1161989 77.26475055 -0.22271536 81.05103886 -1 85 C-1.33 85 -1.66 85 -2 85 C-1.99000725 83.54087692 -1.99000725 83.54087692 -1.97981262 82.05227661 C-1.91908279 72.89949366 -1.87406658 63.74675141 -1.84456348 54.59381294 C-1.82888589 49.88781483 -1.80760964 45.18197895 -1.77368164 40.47607422 C-1.74116255 35.9373502 -1.72316277 31.39878252 -1.71536827 26.85995102 C-1.70981132 25.12552299 -1.69896037 23.39110383 -1.68280983 21.6567421 C-1.66113413 19.23337342 -1.65802887 16.81065653 -1.65942383 14.38720703 C-1.648638 13.66503998 -1.63785217 12.94287292 -1.6267395 12.19882202 C-1.60532589 9.99547777 -1.60532589 9.99547777 -2 7 C-2.99 6.34 -3.98 5.68 -5 5 C-5 4.34 -5 3.68 -5 3 C-5.66 2.67 -6.32 2.34 -7 2 C-6 0 -6 0 -4.0625 -0.6875 C-2 -1 -2 -1 0 0 Z " fill="#757371" transform="translate(328,114)"/>
<path d="M0 0 C0.33 0 0.66 0 1 0 C1.125 3.375 1.125 3.375 1 7 C-1 9 -1 9 -3.9359436 9.24050903 C-5.82124283 9.2338472 -5.82124283 9.2338472 -7.74462891 9.22705078 C-8.78382225 9.22748886 -8.78382225 9.22748886 -9.8440094 9.22793579 C-12.13832034 9.22654031 -14.43230816 9.21096919 -16.7265625 9.1953125 C-18.31553978 9.19158314 -19.90451936 9.1887358 -21.49349976 9.18673706 C-25.67914154 9.17909453 -29.8646449 9.15944081 -34.05023193 9.1373291 C-38.31992724 9.11688396 -42.58964487 9.1077382 -46.859375 9.09765625 C-55.23964691 9.07619543 -63.61980625 9.04205211 -72 9 C-72 8.67 -72 8.34 -72 8 C-59.79 8 -47.58 8 -35 8 C-35 7.34 -35 6.68 -35 6 C-34.14003418 6.00785522 -34.14003418 6.00785522 -33.26269531 6.01586914 C-17.60434993 6.15314734 -17.60434993 6.15314734 -2 5 C-1.34 3.35 -0.68 1.7 0 0 Z " fill="#575654" transform="translate(327,379)"/>
<path d="M0 0 C2.25245881 2.68841859 3.88213958 4.64641875 5 8 C5.66 8 6.32 8 7 8 C7.33773437 8.62648438 7.67546875 9.25296875 8.0234375 9.8984375 C8.46945313 10.71570313 8.91546875 11.53296875 9.375 12.375 C9.81585938 13.18710937 10.25671875 13.99921875 10.7109375 14.8359375 C11.9443893 17.10814302 11.9443893 17.10814302 14 19 C15.32 19 16.64 19 18 19 C18 19.66 18 20.32 18 21 C18.66 21.33 19.32 21.66 20 22 C19.34 23.32 18.68 24.64 18 26 C18.66 26.99 19.32 27.98 20 29 C19.01 29 18.02 29 17 29 C17 28.34 17 27.68 17 27 C16.34 27 15.68 27 15 27 C12 23.53846154 12 23.53846154 12 21 C11.34 21 10.68 21 10 21 C8.77905273 19.48706055 8.77905273 19.48706055 7.43359375 17.38671875 C6.94826172 16.63326172 6.46292969 15.87980469 5.96289062 15.10351562 C5.20782227 13.90758789 5.20782227 13.90758789 4.4375 12.6875 C3.67663086 11.50897461 3.67663086 11.50897461 2.90039062 10.30664062 C-0.85776612 4.42670165 -0.85776612 4.42670165 -2 1 C-1.34 0.67 -0.68 0.34 0 0 Z " fill="#858481" transform="translate(141,315)"/>
<path d="M0 0 C5.4611399 0.35233161 5.4611399 0.35233161 8 1 C9.5 3.0625 9.5 3.0625 10 5 C10.66 5 11.32 5 12 5 C12 5.99 12 6.98 12 8 C12.66 8 13.32 8 14 8 C14.33 7.01 14.66 6.02 15 5 C15.66 5.33 16.32 5.66 17 6 C17 6.66 17 7.32 17 8 C19.475 8.495 19.475 8.495 22 9 C22 9.99 22 10.98 22 12 C14.57277806 10.06246384 6.15329565 7.71752667 0 3 C0 2.01 0 1.02 0 0 Z M10 2 C12 3 12 3 12 3 Z " fill="#7B7A78" transform="translate(194,368)"/>
<path d="M0 0 C0.02934711 3.49998201 0.04691445 6.99993179 0.0625 10.5 C0.07087891 11.48226562 0.07925781 12.46453125 0.08789062 13.4765625 C0.10659124 19.08674757 -0.161121 24.45150899 -1 30 C-1.33 30 -1.66 30 -2 30 C-1.98428955 29.31373535 -1.9685791 28.6274707 -1.95239258 27.92041016 C-1.89017281 24.82202337 -1.85105102 21.72376776 -1.8125 18.625 C-1.78736328 17.54476562 -1.76222656 16.46453125 -1.73632812 15.3515625 C-1.72666016 14.3203125 -1.71699219 13.2890625 -1.70703125 12.2265625 C-1.6913208 11.27346191 -1.67561035 10.32036133 -1.65942383 9.33837891 C-1.82800903 8.18088135 -1.82800903 8.18088135 -2 7 C-2.99 6.34 -3.98 5.68 -5 5 C-5 4.34 -5 3.68 -5 3 C-5.66 2.67 -6.32 2.34 -7 2 C-6 0 -6 0 -4.0625 -0.6875 C-2 -1 -2 -1 0 0 Z " fill="#6D6C6A" transform="translate(328,114)"/>
<path d="M0 0 C0.33 0 0.66 0 1 0 C2.19125107 4.76500428 1.89567004 7.94664766 0.5625 12.6875 C-0.96650726 18.14922413 -1.19908521 22.95633514 -0.91015625 28.6015625 C-1 31 -1 31 -3 33 C-4.60307549 21.18603065 -3.0556177 11.4487307 0 0 Z " fill="#D7D6D5" transform="translate(127,217)"/>
<path d="M0 0 C2.475 0.99 2.475 0.99 5 2 C5 2.99 5 3.98 5 5 C5.763125 4.67 6.52625 4.34 7.3125 4 C10 3 10 3 13 3 C13 3.66 13 4.32 13 5 C13.99 5 14.98 5 16 5 C16.99 5 17.98 5 19 5 C18.67 5.99 18.34 6.98 18 8 C10.96871122 7.56615452 4.670985 6.25678003 -2 4 C-1.34 2.68 -0.68 1.36 0 0 Z " fill="#6C6B6A" transform="translate(219,377)"/>
<path d="M0 0 C0.66 0.33 1.32 0.66 2 1 C1.34 2.65 0.68 4.3 0 6 C0.66 6 1.32 6 2 6 C1.67 6.99 1.34 7.98 1 9 C0.071875 8.773125 -0.85625 8.54625 -1.8125 8.3125 C-4.96317152 7.62434952 -4.96317152 7.62434952 -6.75 9.4375 C-7.1625 9.953125 -7.575 10.46875 -8 11 C-8.66 11 -9.32 11 -10 11 C-9 8 -9 8 -8 7 C-8.66 6.67 -9.32 6.34 -10 6 C-8.3811004 4.96951963 -6.75467511 3.95085322 -5.125 2.9375 C-4.22007812 2.36902344 -3.31515625 1.80054688 -2.3828125 1.21484375 C-1.20332031 0.61349609 -1.20332031 0.61349609 0 0 Z " fill="#8E8D8A" transform="translate(196,127)"/>
<path d="M0 0 C0.33 0.66 0.66 1.32 1 2 C1.66 2.33 2.32 2.66 3 3 C2.38125 4.051875 1.7625 5.10375 1.125 6.1875 C-0.51579108 9.05015677 -1.86984453 11.89207246 -3 15 C-3.66 15 -4.32 15 -5 15 C-4.88512252 13.41590006 -4.75765492 11.83271037 -4.625 10.25 C-4.55539063 9.36828125 -4.48578125 8.4865625 -4.4140625 7.578125 C-3.99616748 4.97613712 -3.39354867 3.22566767 -2 1 C-1.34 0.67 -0.68 0.34 0 0 Z " fill="#BEBDBC" transform="translate(142,180)"/>
<path d="M0 0 C3.23501466 3.72026686 5.57417568 8.29146387 7 13 C6.609375 15.28125 6.609375 15.28125 6 17 C2.32009406 13.6796251 0.5061592 9.67400492 -1 5 C-0.75 1.9375 -0.75 1.9375 0 0 Z " fill="#918F8C" transform="translate(133,298)"/>
<path d="M0 0 C0.66 0.33 1.32 0.66 2 1 C0.59785066 2.36919284 -0.82228473 3.71998709 -2.25 5.0625 C-3.43335938 6.19365234 -3.43335938 6.19365234 -4.640625 7.34765625 C-7 9 -7 9 -9.296875 8.74609375 C-9.85890625 8.49988281 -10.4209375 8.25367188 -11 8 C-11.33 8.99 -11.66 9.98 -12 11 C-12.66 10.34 -13.32 9.68 -14 9 C-9.25 5 -9.25 5 -7 5 C-7 4.34 -7 3.68 -7 3 C-4.69631264 1.93347808 -2.35981813 0.93578995 0 0 Z " fill="#A3A2A0" transform="translate(188,133)"/>
<path d="M0 0 C0.928125 0.165 1.85625 0.33 2.8125 0.5 C6.14981888 1.023501 9.12502755 0.99553473 12.5 0.875 C16 1 16 1 19 3 C12.28178997 4.45258595 4.12288167 5.6363593 -2 2 C-1.34 2 -0.68 2 0 2 C0 1.34 0 0.68 0 0 Z " fill="#6D6D6A" transform="translate(240,383)"/>
<path d="M0 0 C0.33 0.66 0.66 1.32 1 2 C1.66 2.33 2.32 2.66 3 3 C2.34 4.32 1.68 5.64 1 7 C1.99 8.485 1.99 8.485 3 10 C2.01 10 1.02 10 0 10 C0 9.34 0 8.68 0 8 C-0.66 8 -1.32 8 -2 8 C-3.6875 6.1875 -3.6875 6.1875 -5 4 C-4.67 3.01 -4.34 2.02 -4 1 C-1.9375 0.3125 -1.9375 0.3125 0 0 Z " fill="#8E8E8B" transform="translate(158,334)"/>
<path d="M0 0 C1.89213369 2.38573379 3.02391783 4.07175348 4 7 C3.01 7.495 3.01 7.495 2 8 C1.01 7.67 0.02 7.34 -1 7 C-1.33 7.66 -1.66 8.32 -2 9 C-2.97110486 5.97878489 -3.13617383 3.99536737 -2 1 C-1.34 0.67 -0.68 0.34 0 0 Z " fill="#C0BFBD" transform="translate(148,171)"/>
<path d="M0 0 C0.33 0 0.66 0 1 0 C1 2.31 1 4.62 1 7 C-1.94386623 8.47193312 -4.37390036 7.84936173 -7.625 7.5625 C-8.81351562 7.46066406 -10.00203125 7.35882813 -11.2265625 7.25390625 C-12.14179688 7.17011719 -13.05703125 7.08632813 -14 7 C-14 6.67 -14 6.34 -14 6 C-8.06 5.505 -8.06 5.505 -2 5 C-1.34 3.35 -0.68 1.7 0 0 Z " fill="#686765" transform="translate(327,379)"/>
<path d="M0 0 C1.670625 0.495 1.670625 0.495 3.375 1 C6.69459717 2.088643 6.69459717 2.088643 9 2 C9.33 3.32 9.66 4.64 10 6 C9.01 6.495 9.01 6.495 8 7 C6.0546875 6.07421875 6.0546875 6.07421875 3.875 4.6875 C2.78832031 4.01267578 2.78832031 4.01267578 1.6796875 3.32421875 C1.12539062 2.88722656 0.57109375 2.45023437 0 2 C0 1.34 0 0.68 0 0 Z " fill="#8C8B8A" transform="translate(185,364)"/>
<path d="M0 0 C5.4611399 0.35233161 5.4611399 0.35233161 8 1 C9.5 3.0625 9.5 3.0625 10 5 C8.906875 4.67 7.81375 4.34 6.6875 4 C3.15421116 2.86913351 3.15421116 2.86913351 0 3 C0 2.01 0 1.02 0 0 Z M10 2 C12 3 12 3 12 3 Z " fill="#686765" transform="translate(194,368)"/>
<path d="M0 0 C0 1.98 0 3.96 0 6 C-3.37503669 4.8141763 -5.64722731 3.72426311 -8 1 C-5.07175348 0.02391783 -3.04386724 -0.08226668 0 0 Z " fill="#6F6E6C" transform="translate(192,361)"/>
<path d="M0 0 C1.22589844 0.01353516 1.22589844 0.01353516 2.4765625 0.02734375 C3.41628906 0.04474609 3.41628906 0.04474609 4.375 0.0625 C1.17163178 2.89624881 -1.40587253 3.5830537 -5.625 4.0625 C-5.955 3.0725 -6.285 2.0825 -6.625 1.0625 C-4.21954362 -0.14022819 -2.67503047 -0.03821472 0 0 Z " fill="#91908F" transform="translate(209.625,122.9375)"/>
<path d="M0 0 C1.29608947 0.93137592 2.58671632 1.8703566 3.875 2.8125 C4.59429687 3.33457031 5.31359375 3.85664063 6.0546875 4.39453125 C8 6 8 6 10 9 C6.11624195 8.42462844 3.82218799 6.66963729 1 4 C0.35546875 1.86328125 0.35546875 1.86328125 0 0 Z " fill="#858482" transform="translate(164,347)"/>
<path d="M0 0 C0.66 1.32 1.32 2.64 2 4 C1.01 5.485 1.01 5.485 0 7 C-1.32 7 -2.64 7 -4 7 C-2.79618552 4.50638429 -1.54571278 2.31856917 0 0 Z " fill="#ABAAA9" transform="translate(153,162)"/>
<path d="M0 0 C3.96 0 7.92 0 12 0 C8 2 8 2 5 2 C4.67 2.66 4.34 3.32 4 4 C3.67 3.01 3.34 2.02 3 1 C2.01 0.67 1.02 0.34 0 0 Z " fill="#7D7D7B" transform="translate(251,114)"/>
<path d="M0 0 C3 3.625 3 3.625 3 7 C2.01 7 1.02 7 0 7 C-1.125 2.25 -1.125 2.25 0 0 Z " fill="#A4A3A0" transform="translate(133,298)"/>
<path d="M0 0 C1.42944945 2.35438733 2.08661261 3.48032433 1.625 6.25 C1.41875 6.8275 1.2125 7.405 1 8 C0.34 8 -0.32 8 -1 8 C-1.125 2.25 -1.125 2.25 0 0 Z " fill="#D1D0CF" transform="translate(138,187)"/>
<path d="M0 0 C0.66 0.33 1.32 0.66 2 1 C1.34 2.98 0.68 4.96 0 7 C-0.99 6.67 -1.98 6.34 -3 6 C-1.125 1.125 -1.125 1.125 0 0 Z " fill="#ABAAA9" transform="translate(144,175)"/>
</svg>
